<?xml version="1.0" encoding="UTF-8" standalone="no"?>
<!DOCTYPE svg PUBLIC "-//W3C//DTD SVG 1.1//EN" "http://www.w3.org/Graphics/SVG/1.1/DTD/svg11.dtd">
<!-- Generated by Microsoft Visio, SVG Export words-math.svg Page-1 -->
<svg xmlns="http://www.w3.org/2000/svg" xmlns:xlink="http://www.w3.org/1999/xlink" xmlns:ev="http://www.w3.org/2001/xml-events"
		xmlns:v="http://schemas.microsoft.com/visio/2003/SVGExtensions/" width="5.60312in" height="3.66274in"
		viewBox="0 0 403.425 263.717" xml:space="preserve" color-interpolation-filters="sRGB" class="st7">
	<v:documentProperties v:langID="1033" v:viewMarkup="false"/>

	<style type="text/css">
	<![CDATA[
		.st1 {fill:#1ba1e2;stroke:#c8c8c8;stroke-width:0.25}
		.st2 {fill:#feffff;font-family:Calibri;font-size:1.00001em}
		.st3 {font-size:1em}
		.st4 {marker-end:url(#mrkr4-19);stroke:#1ba1e2;stroke-linecap:round;stroke-linejoin:round;stroke-width:2}
		.st5 {fill:#1ba1e2;fill-opacity:1;stroke:#1ba1e2;stroke-opacity:1;stroke-width:0.52631578947368}
		.st6 {fill:#f09609;stroke:#c7c8c8;stroke-width:0.25}
		.st7 {fill:none;fill-rule:evenodd;font-size:12px;overflow:visible;stroke-linecap:square;stroke-miterlimit:3}
	]]>
	</style>

	<defs id="Markers">
		<g id="lend4">
			<path d="M 2 1 L 0 0 L 2 -1 L 2 1 " style="stroke:none"/>
		</g>
		<marker id="mrkr4-19" class="st5" v:arrowType="4" v:arrowSize="1" v:setback="3.62" refX="-3.62" orient="auto"
				markerUnits="strokeWidth" overflow="visible">
			<use xlink:href="#lend4" transform="scale(-1.9,-1.9) "/>
		</marker>
	</defs>
	<g v:mID="0" v:index="1" v:groupContext="foregroundPage">
		<title>Page-1</title>
		<v:pageProperties v:drawingScale="0.0393701" v:pageScale="0.0393701" v:drawingUnits="24" v:shadowOffsetX="8.50394"
				v:shadowOffsetY="-8.50394"/>
		<v:layer v:name="Flowchart" v:index="0"/>
		<v:layer v:name="Connector" v:index="1"/>
		<g id="shape1-1" v:mID="1" v:groupContext="shape" v:layerMember="0" transform="translate(0.25,-113.636)">
			<title>State</title>
			<desc>президент</desc>
			<v:custProps>
				<v:cp v:nameU="Cost" v:lbl="Cost" v:type="7" v:format="@" v:langID="1033"/>
				<v:cp v:nameU="Duration" v:lbl="Duration" v:type="2" v:langID="1033"/>
				<v:cp v:nameU="Resources" v:lbl="Resources" v:langID="1033"/>
			</v:custProps>
			<v:userDefs>
				<v:ud v:nameU="visVersion" v:val="VT0(15):26"/>
			</v:userDefs>
			<v:textBlock v:margins="rect(1,1,1,1)" v:tabSpace="42.5197"/>
			<v:textRect cx="28.3465" cy="235.371" width="56.7" height="56.6929"/>
			<path d="M0 235.37 A28.3465 28.3465 0 0 1 56.69 235.37 A28.3465 28.3465 0 1 1 0 235.37 Z" class="st1"/>
			<text x="1.44" y="238.97" class="st2" v:langID="1049"><v:paragraph v:horizAlign="1"/><v:tabList/>президент</text>		</g>
		<g id="shape2-4" v:mID="2" v:groupContext="shape" v:layerMember="0" transform="translate(184.502,-0.25)">
			<title>State.2</title>
			<desc>Россия</desc>
			<v:custProps>
				<v:cp v:nameU="Cost" v:lbl="Cost" v:type="7" v:format="@" v:langID="1033"/>
				<v:cp v:nameU="Duration" v:lbl="Duration" v:type="2" v:langID="1033"/>
				<v:cp v:nameU="Resources" v:lbl="Resources" v:langID="1033"/>
			</v:custProps>
			<v:userDefs>
				<v:ud v:nameU="visVersion" v:val="VT0(15):26"/>
			</v:userDefs>
			<v:textBlock v:margins="rect(1,1,1,1)" v:tabSpace="42.5197"/>
			<v:textRect cx="28.3465" cy="235.371" width="56.7" height="56.6929"/>
			<path d="M0 235.37 A28.3465 28.3465 0 0 1 56.69 235.37 A28.3465 28.3465 0 1 1 0 235.37 Z" class="st1"/>
			<text x="10.92" y="238.97" class="st2" v:langID="1049"><v:paragraph v:horizAlign="1"/><v:tabList/>Россия</text>		</g>
		<g id="shape3-7" v:mID="3" v:groupContext="shape" v:layerMember="0" transform="translate(184.502,-206.774)">
			<title>State.3</title>
			<desc>Куба</desc>
			<v:custProps>
				<v:cp v:nameU="Cost" v:lbl="Cost" v:type="7" v:format="@" v:langID="1033"/>
				<v:cp v:nameU="Duration" v:lbl="Duration" v:type="2" v:langID="1033"/>
				<v:cp v:nameU="Resources" v:lbl="Resources" v:langID="1033"/>
			</v:custProps>
			<v:userDefs>
				<v:ud v:nameU="visVersion" v:val="VT0(15):26"/>
			</v:userDefs>
			<v:textBlock v:margins="rect(1,1,1,1)" v:tabSpace="42.5197"/>
			<v:textRect cx="28.3465" cy="235.371" width="56.7" height="56.6929"/>
			<path d="M0 235.37 A28.3465 28.3465 0 0 1 56.69 235.37 A28.3465 28.3465 0 1 1 0 235.37 Z" class="st1"/>
			<text x="16.3" y="238.97" class="st2" v:langID="1049"><v:paragraph v:horizAlign="1"/><v:tabList/>Куба</text>		</g>
		<g id="shape4-10" v:mID="4" v:groupContext="shape" v:layerMember="0" transform="translate(346.482,-113.636)">
			<title>State.4</title>
			<desc>Фидель Кастро</desc>
			<v:custProps>
				<v:cp v:nameU="Cost" v:lbl="Cost" v:type="7" v:format="@" v:langID="1033"/>
				<v:cp v:nameU="Duration" v:lbl="Duration" v:type="2" v:langID="1033"/>
				<v:cp v:nameU="Resources" v:lbl="Resources" v:langID="1033"/>
			</v:custProps>
			<v:userDefs>
				<v:ud v:nameU="visVersion" v:val="VT0(15):26"/>
			</v:userDefs>
			<v:textBlock v:margins="rect(1,1,1,1)" v:tabSpace="42.5197"/>
			<v:textRect cx="28.3465" cy="235.371" width="56.7" height="56.6929"/>
			<path d="M0 235.37 A28.3465 28.3465 0 0 1 56.69 235.37 A28.3465 28.3465 0 1 1 0 235.37 Z" class="st1"/>
			<text x="8.71" y="231.77" class="st2" v:langID="1049"><v:paragraph v:horizAlign="1"/><v:tabList/>Фидель <tspan
						x="11.04" dy="1.2em" class="st3">Кастро</tspan></text>		</g>
		<g id="shape7-14" v:mID="7" v:groupContext="shape" v:layerMember="1" transform="translate(166.81,-102.862) rotate(31.6075)">
			<title>Center to center 1</title>
			<v:userDefs>
				<v:ud v:nameU="ScaleFactor" v:val="VT0(1):26"/>
				<v:ud v:nameU="visVersion" v:val="VT0(15):26"/>
			</v:userDefs>
			<path d="M11.95 238.01 A113.592 113.592 0 0 1 200.14 231.71 L200.34 232.01" class="st4"/>
		</g>
		<g id="shape9-20" v:mID="9" v:groupContext="shape" v:layerMember="1" transform="translate(-50.8687,235.121) rotate(-90)">
			<title>Center to center 1.9</title>
			<v:userDefs>
				<v:ud v:nameU="ScaleFactor" v:val="VT0(1):26"/>
				<v:ud v:nameU="visVersion" v:val="VT0(15):26"/>
			</v:userDefs>
			<path d="M17.88 241.72 A122.389 122.389 0 0 1 183.03 236.59 L183.3 236.84" class="st4"/>
		</g>
		<g id="shape10-25" v:mID="10" v:groupContext="shape" transform="translate(269.541,-113.636)">
			<title>Equals Sign</title>
			<v:userDefs>
				<v:ud v:nameU="visVersion" v:prompt="" v:val="VT0(15):26"/>
			</v:userDefs>
			<path d="M5.67 238.21 L5.67 249.54 L51.02 249.54 L51.02 238.21 L5.67 238.21 ZM5.67 232.54 L5.67 221.2 L51.02 221.2 L51.02
						 232.54 L5.67 232.54 Z" class="st6"/>
		</g>
		<g id="shape11-27" v:mID="11" v:groupContext="shape" transform="translate(79.2151,-56.9429)">
			<title>Minus</title>
			<v:userDefs>
				<v:ud v:nameU="visVersion" v:prompt="" v:val="VT0(15):26"/>
			</v:userDefs>
			<rect x="5.66929" y="229.701" width="45.3543" height="11.3386" class="st6"/>
		</g>
		<g id="shape14-29" v:mID="14" v:groupContext="shape" transform="translate(192.601,-113.636)">
			<title>Plus</title>
			<v:userDefs>
				<v:ud v:nameU="visVersion" v:prompt="" v:val="VT0(15):26"/>
			</v:userDefs>
			<path d="M34.02 229.7 L34.02 212.69 L22.68 212.69 L22.68 229.7 L5.67 229.7 L5.67 241.04 L22.68 241.04 L22.68 258.05 L34.02
						 258.05 L34.02 241.04 L51.02 241.04 L51.02 229.7 L34.02 229.7 Z" class="st6"/>
		</g>
	</g>
</svg>
